<?xml version="1.0" encoding="utf-8"?>
<!-- Generator: Adobe Illustrator 19.0.1, SVG Export Plug-In . SVG Version: 6.00 Build 0)  -->
<!DOCTYPE svg PUBLIC "-//W3C//DTD SVG 1.1//EN" "http://www.w3.org/Graphics/SVG/1.1/DTD/svg11.dtd">
<svg version="1.1" id="Layer_1" xmlns="http://www.w3.org/2000/svg" xmlns:xlink="http://www.w3.org/1999/xlink" x="0px" y="0px"
	 viewBox="0 0 318 87.6" enable-background="new 0 0 318 87.6" xml:space="preserve">
<path fill="#67686B" d="M28.9,41.7V16h25.8C49.9,6.5,40.2,0,28.9,0C12.9,0,0,12.9,0,28.9c0,15.9,12.9,28.9,28.9,28.9
	c11.3,0,21.1-6.5,25.8-16H28.9z"/>
<polygon fill="#819821" points="54.4,16 54.4,41.7 80.2,41.7 80.2,16 54.4,16 "/>
<path fill="#67686B" d="M210.1,42.4c1.8,0,3.7-0.3,5.4-1.4c2.4-1.6,3.2-3.9,3.2-5.9c0-3.2-1.5-5.5-5.6-8.6l-1-0.7
	c-2.8-2.1-3.6-3.3-3.6-4.9c0-2,1.5-3.5,4-3.5c2.2,0,3.2,1,3.7,1.7c0.7,0.9,0.9,1.9,0.9,2.2c0,0.4,0.1,0.6,0.3,0.6
	c0.3,0,0.4-0.3,0.4-1c0-2.6,0.1-3.6,0.1-4.1c0-0.2-0.2-0.3-0.5-0.4c-0.9-0.2-2.3-0.6-4.5-0.6c-4.7,0-7.8,2.7-7.8,6.4
	c0,2.7,1.3,5.1,5,8l1.6,1.2c2.8,2.2,3.3,3.8,3.3,5.4c0,1.8-1.5,3.9-4.5,3.9c-2.1,0-4.1-0.9-4.9-3.4c-0.2-0.6-0.3-1.3-0.3-1.7
	c0-0.3,0-0.6-0.3-0.6c-0.3,0-0.4,0.4-0.4,0.9c0,0.5-0.2,2.6-0.2,4.4c0,0.7,0.1,0.9,0.6,1.2C206.6,42.2,208.1,42.4,210.1,42.4
	L210.1,42.4z M227.7,31.1c0,4.9,1.3,7.4,3,9c2.5,2.2,5.7,2.3,7.5,2.3c2.2,0,4.6-0.4,7.1-2.4c2.9-2.4,3.2-6.4,3.2-10.2v-3.6
	c0-5.2,0-6.1,0.1-7.2c0.1-1.2,0.3-1.8,1.3-1.9c0.4-0.1,0.6-0.1,1-0.1c0.4,0,0.6-0.1,0.6-0.3c0-0.2-0.2-0.3-0.7-0.3
	c-1.3,0-3.5,0.1-3.9,0.1c0,0-2.2-0.1-3.9-0.1c-0.5,0-0.7,0.1-0.7,0.3c0,0.2,0.2,0.3,0.6,0.3c0.4,0,1,0,1.2,0.1
	c1.1,0.2,1.4,0.8,1.5,1.9c0.1,1.1,0.1,2,0.1,7.2v4.2c0,3.5-0.1,6.5-2,8.4c-1.4,1.4-3.2,1.8-4.7,1.8c-1.2,0-2.7-0.1-4.2-1.4
	c-1.7-1.4-2.6-3.4-2.6-8.3v-4.7c0-5.2,0-6.1,0.1-7.2c0.1-1.2,0.3-1.8,1.3-1.9c0.4-0.1,0.6-0.1,1-0.1c0.3,0,0.5-0.1,0.5-0.3
	c0-0.2-0.2-0.3-0.7-0.3c-1.2,0-3.4,0.1-4.2,0.1c-1,0-3.2-0.1-5-0.1c-0.5,0-0.7,0.1-0.7,0.3c0,0.2,0.2,0.3,0.6,0.3
	c0.5,0,1.1,0,1.3,0.1c1.1,0.2,1.4,0.8,1.5,1.9c0.1,1.1,0.1,2,0.1,7.2V31.1L227.7,31.1z M259.7,32.1c0,3.1,0,5.8-0.2,7.2
	c-0.1,1-0.3,1.7-1,1.9c-0.3,0.1-0.7,0.1-1.2,0.1c-0.4,0-0.5,0.1-0.5,0.3c0,0.2,0.2,0.3,0.7,0.3c1.4,0,3.5-0.1,4.1-0.1
	c0.5,0,3,0.1,5,0.1c0.4,0,0.7-0.1,0.7-0.3c0-0.2-0.1-0.3-0.4-0.3c-0.4,0-1.2-0.1-1.7-0.1c-1-0.1-1.2-0.9-1.3-1.9
	c-0.2-1.4-0.2-4.1-0.2-7.3v-0.5c0-0.2,0.1-0.3,0.3-0.3l3,0.1c0.2,0,0.4,0,0.6,0.2c0.4,0.5,2,2.8,3.4,4.7c1.9,2.6,3.2,4.2,4.6,5
	c0.9,0.5,1.7,0.6,3.6,0.6h3.2c0.4,0,0.6-0.1,0.6-0.3c0-0.2-0.1-0.3-0.4-0.3c-0.3,0-0.6,0-1-0.1c-0.5-0.1-1.9-0.3-3.8-2.3
	c-2-2.1-4.3-5.1-7.4-8.9c3.4-2.8,4.5-5.1,4.5-7.6c0-2.3-1.4-4-2.3-4.6c-1.8-1.3-4.1-1.5-6.2-1.5c-1.1,0-3.6,0.1-4.8,0.1
	c-0.7,0-2.8-0.1-4.6-0.1c-0.5,0-0.7,0.1-0.7,0.3c0,0.2,0.2,0.3,0.6,0.3c0.5,0,1.1,0,1.3,0.1c1.1,0.2,1.4,0.8,1.5,1.9
	c0.1,1.1,0.1,2,0.1,7.2V32.1L259.7,32.1z M263.7,18.5c0-0.3,0.1-0.4,0.3-0.5c0.3-0.1,0.9-0.1,1.8-0.1c2,0,5.2,1.4,5.2,6.2
	c0,2.8-1,4.3-2,5.1c-0.6,0.4-1.1,0.6-2.4,0.6c-0.8,0-1.9-0.1-2.6-0.3c-0.2-0.1-0.3-0.2-0.3-0.6V18.5L263.7,18.5z M287.4,32.1
	c0,3.1,0,5.8-0.2,7.2c-0.1,1-0.3,1.7-1,1.9c-0.3,0.1-0.7,0.1-1.2,0.1c-0.4,0-0.5,0.1-0.5,0.3c0,0.2,0.2,0.3,0.7,0.3
	c1.4,0,3.5-0.1,4.3-0.1c2,0,4.3,0.2,9.4,0.2c1.3,0,1.6,0,1.8-0.9c0.2-0.7,0.4-3,0.4-3.8c0-0.3,0-0.6-0.3-0.6c-0.2,0-0.3,0.1-0.4,0.5
	c-0.2,1.4-0.6,2.1-1.5,2.5c-0.9,0.4-2.3,0.4-3.2,0.4c-3.5,0-4-0.5-4.1-2.8c0-1,0-4.1,0-5.3v-2.7c0-0.2,0-0.3,0.2-0.3
	c0.8,0,4.2,0,4.8,0.1c1.3,0.1,1.7,0.6,1.9,1.3c0.1,0.4,0.1,0.9,0.1,1.2c0,0.2,0.1,0.3,0.3,0.3c0.3,0,0.3-0.4,0.3-0.6
	c0-0.2,0.1-1.6,0.1-2.3c0.1-1.7,0.3-2.3,0.3-2.5c0-0.2-0.1-0.3-0.2-0.3c-0.2,0-0.3,0.2-0.5,0.4c-0.3,0.3-0.8,0.4-1.6,0.5
	c-0.8,0.1-4.7,0.1-5.4,0.1c-0.2,0-0.2-0.1-0.2-0.4v-8.6c0-0.2,0.1-0.3,0.2-0.3c0.7,0,4.2,0.1,4.8,0.1c1.7,0.2,2,0.6,2.3,1.2
	c0.2,0.4,0.2,1,0.2,1.2c0,0.3,0.1,0.5,0.3,0.5s0.3-0.2,0.3-0.4c0.1-0.4,0.1-1.9,0.2-2.2c0.1-1.6,0.3-2,0.3-2.2c0-0.2,0-0.3-0.2-0.3
	c-0.2,0-0.4,0.1-0.5,0.1c-0.3,0.1-0.8,0.1-1.5,0.2c-0.6,0-7.4,0-8.5,0c-1,0-3.1-0.1-4.9-0.1c-0.5,0-0.7,0.1-0.7,0.3
	c0,0.2,0.2,0.3,0.6,0.3c0.5,0,1.1,0,1.3,0.1c1.1,0.2,1.4,0.8,1.5,1.9c0.1,1.1,0.1,2,0.1,7.2V32.1L287.4,32.1z"/>
<path fill="#819821" d="M107.3,42.4c1.8,0,3.7-0.3,5.4-1.4c2.4-1.6,3.2-3.9,3.2-5.9c0-3.2-1.5-5.5-5.6-8.6l-1-0.7
	c-2.8-2.1-3.6-3.3-3.6-4.9c0-2,1.5-3.5,4-3.5c2.2,0,3.2,1,3.7,1.7c0.7,0.9,0.9,1.9,0.9,2.2c0,0.4,0.1,0.6,0.3,0.6
	c0.3,0,0.4-0.3,0.4-1c0-2.6,0.1-3.6,0.1-4.1c0-0.2-0.2-0.3-0.5-0.4c-0.9-0.2-2.3-0.6-4.5-0.6c-4.7,0-7.8,2.7-7.8,6.4
	c0,2.7,1.3,5.1,5,8l1.6,1.2c2.8,2.2,3.3,3.8,3.3,5.4c0,1.8-1.5,3.9-4.5,3.9c-2.1,0-4.1-0.9-4.9-3.4c-0.2-0.6-0.3-1.3-0.3-1.7
	c0-0.3,0-0.6-0.3-0.6c-0.3,0-0.4,0.4-0.4,0.9c0,0.5-0.2,2.6-0.2,4.4c0,0.7,0.1,0.9,0.6,1.2C103.8,42.2,105.3,42.4,107.3,42.4
	L107.3,42.4z M135.3,33.1c0.2,0,0.3,0.1,0.3,0.2l2.7,7.2c0.2,0.4-0.1,0.7-0.3,0.8c-0.3,0-0.5,0.1-0.5,0.3c0,0.2,0.4,0.2,1,0.3
	c2.7,0.1,5.2,0.1,6.4,0.1c1.3,0,1.6-0.1,1.6-0.3c0-0.2-0.2-0.3-0.4-0.3c-0.4,0-0.9,0-1.4-0.1c-0.7-0.2-1.7-0.6-3-3.7
	c-2.2-5.2-7.6-19-8.4-20.9c-0.3-0.8-0.5-1.1-0.8-1.1c-0.3,0-0.5,0.4-1,1.4L123,38.2c-0.7,1.7-1.3,2.8-2.9,3.1
	c-0.3,0-0.7,0.1-1.1,0.1c-0.3,0-0.4,0.1-0.4,0.3c0,0.3,0.2,0.3,0.6,0.3c1.8,0,3.6-0.1,4-0.1c1.1,0,2.5,0.1,3.6,0.1
	c0.4,0,0.6-0.1,0.6-0.3c0-0.2-0.1-0.3-0.5-0.3h-0.5c-1.1,0-1.4-0.4-1.4-1.1c0-0.4,0.2-1.2,0.5-2.1l1.8-4.9c0.1-0.2,0.1-0.3,0.3-0.3
	H135.3L135.3,33.1z M128.4,31.4c-0.1,0-0.2-0.1-0.1-0.2l3.1-8.3c0-0.1,0.1-0.3,0.2-0.3c0.1,0,0.1,0.2,0.2,0.3l3.1,8.4
	c0,0.1,0,0.2-0.2,0.2H128.4L128.4,31.4z M171.7,35.9c0-1.7,0-3.1,0-4.1c0-1.2,0.4-1.8,1.3-1.9c0.4-0.1,0.6-0.1,0.9-0.1
	c0.2,0,0.4-0.1,0.4-0.3c0-0.3-0.2-0.3-0.7-0.3c-1.1,0-2.9,0.1-4,0.1c-1,0-3.2-0.1-4.9-0.1c-0.5,0-0.7,0.1-0.7,0.3
	c0,0.2,0.2,0.3,0.5,0.3c0.5,0,1.1,0,1.3,0.1c1.1,0.2,1.4,0.8,1.5,1.9c0,1,0,2.3,0,4V39c0,0.6-0.1,1-0.6,1.3c-0.8,0.4-2,0.4-2.9,0.4
	c-7.2,0-11.8-5.5-11.8-12.8c0-4.2,1.2-6.7,3.1-8.3c2.4-2,4.9-2.1,6.7-2.1c3.8,0,6.5,1.6,7.6,2.6c0.9,1,1.1,2,1.2,2.8
	c0,0.3,0.1,0.4,0.3,0.4c0.3,0,0.4-0.2,0.4-0.7c0-4.2,0.2-5.2,0.2-5.6c0-0.2-0.1-0.4-0.5-0.4c-0.8,0-2-0.2-2.7-0.4
	c-0.7-0.1-3.7-0.5-6-0.5c-2.8,0-5.9,0.2-9.1,2.2c-3.1,1.9-5.9,5.7-5.9,11.1c0,9.4,7.4,13.3,15.7,13.3c2.6,0,6-0.4,8.2-1.5
	c0.4-0.2,0.4-0.3,0.4-1.2V35.9L171.7,35.9z M183.2,32.1c0,3.1,0,5.8-0.2,7.2c-0.1,1-0.3,1.7-1,1.9c-0.3,0.1-0.7,0.1-1.2,0.1
	c-0.4,0-0.5,0.1-0.5,0.3c0,0.2,0.2,0.3,0.7,0.3c1.4,0,3.5-0.1,4.3-0.1c2,0,4.3,0.2,9.4,0.2c1.3,0,1.6,0,1.8-0.9
	c0.2-0.7,0.4-3,0.4-3.8c0-0.3,0-0.6-0.3-0.6c-0.2,0-0.3,0.1-0.4,0.5c-0.2,1.4-0.6,2.1-1.5,2.5c-0.9,0.4-2.3,0.4-3.2,0.4
	c-3.5,0-4-0.5-4.1-2.8c0-1,0-4.1,0-5.3v-2.7c0-0.2,0-0.3,0.2-0.3c0.8,0,4.2,0,4.8,0.1c1.3,0.1,1.7,0.6,1.9,1.3
	c0.1,0.4,0.1,0.9,0.1,1.2c0,0.2,0.1,0.3,0.3,0.3c0.3,0,0.3-0.4,0.3-0.6c0-0.2,0.1-1.6,0.1-2.3c0.1-1.7,0.3-2.3,0.3-2.5
	c0-0.2-0.1-0.3-0.2-0.3c-0.2,0-0.3,0.2-0.5,0.4c-0.3,0.3-0.8,0.4-1.6,0.5c-0.8,0.1-4.7,0.1-5.4,0.1c-0.2,0-0.2-0.1-0.2-0.4v-8.6
	c0-0.2,0.1-0.3,0.2-0.3c0.7,0,4.2,0.1,4.8,0.1c1.7,0.2,2,0.6,2.3,1.2c0.2,0.4,0.2,1,0.2,1.2c0,0.3,0.1,0.5,0.3,0.5
	c0.2,0,0.3-0.2,0.3-0.4c0.1-0.4,0.1-1.9,0.2-2.2c0.1-1.6,0.3-2,0.3-2.2c0-0.2,0-0.3-0.2-0.3c-0.2,0-0.4,0.1-0.5,0.1
	c-0.3,0.1-0.8,0.1-1.5,0.2c-0.6,0-7.4,0-8.5,0c-0.9,0-3.1-0.1-4.9-0.1c-0.5,0-0.7,0.1-0.7,0.3c0,0.2,0.2,0.3,0.6,0.3
	c0.5,0,1.1,0,1.3,0.1c1.1,0.2,1.4,0.8,1.5,1.9c0.1,1.1,0.1,2,0.1,7.2V32.1L183.2,32.1z"/>
<path fill="#67686B" d="M103.9,51.7c0-2,0-2.4,0-2.8c0-0.5,0.1-0.6,0.5-0.7c0.2,0,0.2,0,0.3,0c0,0,0.1-0.1,0.1-0.1
	c0-0.1-0.1-0.1-0.2-0.1c-0.4,0-1.3,0-1.4,0c-0.1,0-0.9,0-1.4,0c-0.2,0-0.2,0-0.2,0.1c0,0,0,0.1,0.1,0.1c0.1,0,0.3,0,0.4,0
	c0.3,0.1,0.4,0.3,0.4,0.7c0,0.4,0,0.8,0,2.8V54c0,1.3,0,2.3-0.1,2.8c0,0.4-0.1,0.6-0.4,0.7c-0.1,0-0.3,0.1-0.4,0.1
	c-0.1,0-0.1,0.1-0.1,0.1c0,0.1,0.1,0.1,0.2,0.1c0.4,0,1.3,0,1.3,0c0.1,0,0.9,0,1.7,0c0.2,0,0.2,0,0.2-0.1c0,0,0-0.1-0.1-0.1
	c-0.1,0-0.4,0-0.6-0.1c-0.4-0.1-0.4-0.3-0.5-0.7c-0.1-0.5-0.1-1.6-0.1-2.8V51.7L103.9,51.7z M110.1,49.9c0.4,0.5,1.9,2.1,3.5,3.7
	c1.4,1.5,3.4,3.4,3.5,3.5c0.8,0.7,0.9,0.8,1,0.8c0.1,0,0.1-0.1,0.1-0.9l0-7.7c0-0.8,0-1,0.5-1.1c0.2,0,0.3,0,0.3,0
	c0.1,0,0.2-0.1,0.2-0.1c0-0.1-0.1-0.1-0.2-0.1c-0.6,0-1,0-1.2,0c-0.2,0-0.8,0-1.4,0c-0.2,0-0.3,0-0.3,0.1c0,0,0,0.1,0.1,0.1
	c0.1,0,0.4,0,0.7,0.1c0.4,0.1,0.5,0.4,0.5,1.2l0.1,6.6c-0.4-0.4-1.9-2-3.2-3.4c-2.1-2.2-4.1-4.2-4.3-4.5c-0.1-0.1-0.4-0.4-0.5-0.4
	c-0.1,0-0.2,0.1-0.2,0.7v7.5c0,1.2,0,1.5-0.4,1.6c-0.2,0.1-0.4,0.1-0.6,0.1c-0.1,0-0.1,0-0.1,0.1c0,0.1,0.1,0.1,0.2,0.1
	c0.6,0,1.2,0,1.3,0c0.1,0,0.7,0,1.4,0c0.2,0,0.2,0,0.2-0.1c0-0.1,0-0.1-0.1-0.1c-0.1,0-0.4,0-0.7-0.1c-0.4-0.1-0.5-0.4-0.5-1.5
	L110.1,49.9L110.1,49.9z M124.7,58c0.7,0,1.6-0.1,2.2-0.5c1-0.6,1.3-1.5,1.3-2.2c0-1.1-0.6-2-2.2-3.2l-0.4-0.3
	c-1.3-0.9-1.8-1.4-1.8-2.2c0-0.9,0.8-1.4,1.8-1.4c1.2,0,1.7,0.5,1.8,0.6c0.1,0.1,0.2,0.5,0.2,0.6c0,0.1,0,0.2,0.1,0.2
	c0.1,0,0.1-0.1,0.1-0.3c0-0.9,0.1-1.3,0.1-1.4c0-0.1,0-0.1-0.1-0.1c-0.1,0-0.2,0-0.5-0.1c-0.3-0.1-0.9-0.2-1.4-0.2
	c-1.8,0-3,0.9-3,2.5c0,0.9,0.5,1.7,1.9,2.8l0.6,0.5c1.2,0.9,1.7,1.3,1.7,2.3c0,1-0.7,1.7-2,1.7c-0.9,0-1.9-0.3-2.1-1.3
	c0-0.2,0-0.4,0-0.5c0-0.1,0-0.2-0.1-0.2c-0.1,0-0.1,0.1-0.1,0.2c0,0.2-0.1,0.7-0.1,1.4c0,0.4,0,0.4,0.2,0.5
	C123.2,57.9,124,58,124.7,58L124.7,58z M132.5,53.7c0,1.9,0.5,2.8,1.2,3.4c1,0.9,2.4,0.9,2.8,0.9c0.8,0,1.8-0.1,2.8-1
	c1.1-0.9,1.3-2.5,1.3-3.9v-1.4c0-2,0-2.4,0-2.8c0-0.4,0.1-0.6,0.5-0.7c0.2,0,0.2,0,0.3,0c0.1,0,0.1-0.1,0.1-0.1
	c0-0.1-0.1-0.1-0.2-0.1c-0.4,0-1,0-1.1,0c-0.1,0-0.9,0-1.5,0c-0.2,0-0.2,0-0.2,0.1c0,0,0,0.1,0.1,0.1c0.1,0,0.4,0,0.5,0
	c0.4,0.1,0.5,0.3,0.5,0.7c0,0.4,0,0.8,0,2.8v1.6c0,1.3-0.1,2.4-0.8,3.2c-0.5,0.6-1.3,0.9-2.1,0.9c-0.8,0-1.4-0.1-2-0.7
	c-0.6-0.5-1-1.3-1-3.2v-1.8c0-2,0-2.4,0-2.8c0-0.4,0.1-0.7,0.5-0.7c0.2,0,0.2,0,0.3,0c0.1,0,0.1-0.1,0.1-0.1c0-0.1-0.1-0.1-0.2-0.1
	c-0.4,0-1.2,0-1.4,0c-0.1,0-0.9,0-1.6,0c-0.2,0-0.2,0-0.2,0.1c0,0,0.1,0.1,0.1,0.1c0.1,0,0.4,0,0.5,0c0.4,0.1,0.5,0.3,0.6,0.7
	c0,0.4,0,0.8,0,2.8V53.7L132.5,53.7z M145.8,54c0,1.3,0,2.3-0.1,2.8c-0.1,0.4-0.1,0.6-0.4,0.7c-0.1,0-0.3,0.1-0.4,0.1
	c-0.1,0-0.1,0.1-0.1,0.1c0,0.1,0.1,0.1,0.2,0.1c0.4,0,1.3,0,1.3,0c0.1,0,0.9,0,1.7,0c0.2,0,0.2,0,0.2-0.1c0,0,0-0.1-0.1-0.1
	c-0.1,0-0.4,0-0.6-0.1c-0.4-0.1-0.5-0.3-0.5-0.7c-0.1-0.5-0.1-1.6-0.1-2.8v-0.3c0-0.1,0-0.1,0.1-0.1l1.7,0c0.1,0,0.1,0,0.2,0.1
	c0.3,0.4,0.9,1.2,1.5,1.9c0.8,1,1.3,1.6,1.8,1.9c0.3,0.2,0.7,0.3,1.4,0.3h0.8c0.2,0,0.3,0,0.3-0.1c0,0,0-0.1-0.1-0.1
	c-0.1,0-0.2,0-0.5,0c-0.3,0-0.8-0.2-1.5-0.9c-0.8-0.8-1.7-2-2.8-3.4c1.3-1.1,1.7-2,1.7-3c0-0.9-0.6-1.5-0.9-1.8
	C150,48,149,48,148.2,48c-0.4,0-1.6,0-1.7,0c-0.1,0-1,0-1.6,0c-0.2,0-0.2,0-0.2,0.1c0,0,0.1,0.1,0.1,0.1c0.1,0,0.4,0,0.5,0
	c0.4,0.1,0.5,0.3,0.6,0.7c0,0.4,0,0.8,0,2.8V54L145.8,54z M147,48.6c0-0.1,0-0.1,0.1-0.2c0.1,0,0.6-0.1,1-0.1c1.4,0,2.3,0.9,2.3,2.6
	c0,1-0.4,1.7-0.8,2c-0.3,0.2-0.7,0.2-1,0.2c-0.6,0-1.3-0.1-1.5-0.2c-0.1,0-0.1-0.1-0.1-0.2V48.6L147,48.6z M156.4,56.4
	c-0.3,0.7-0.5,1.1-1.1,1.2c-0.1,0-0.3,0-0.4,0c-0.1,0-0.1,0-0.1,0.1c0,0.1,0.1,0.1,0.3,0.1c0.6,0,1.2,0,1.4,0c0.2,0,0.9,0,1.2,0
	c0.1,0,0.2,0,0.2-0.1c0-0.1,0-0.1-0.1-0.1h-0.1c-0.2,0-0.5-0.1-0.5-0.4c0-0.2,0.1-0.6,0.2-0.9l0.8-2.1c0-0.1,0.1-0.1,0.1-0.1h3.1
	c0.1,0,0.1,0,0.1,0.1l1.2,3c0.1,0.2,0,0.3-0.1,0.4c-0.1,0-0.1,0-0.1,0.1c0,0.1,0.2,0.1,0.5,0.1c0.9,0,1.9,0,2.1,0
	c0.2,0,0.3,0,0.3-0.1c0-0.1-0.1-0.1-0.2-0.1c-0.1,0-0.3,0-0.5-0.1c-0.3-0.1-0.7-0.3-1.2-1.4c-0.8-2-3-7.4-3.2-7.9
	c-0.1-0.3-0.2-0.5-0.3-0.5c-0.1,0-0.2,0.1-0.3,0.5L156.4,56.4L156.4,56.4z M158.4,53.7C158.3,53.7,158.3,53.6,158.4,53.7l1.2-3.7
	c0.1-0.2,0.2-0.2,0.2,0l1.3,3.6c0,0.1,0,0.1,0,0.1H158.4L158.4,53.7z M168.9,49.9c0.4,0.5,1.9,2.1,3.5,3.7c1.4,1.5,3.4,3.4,3.5,3.5
	c0.8,0.7,0.9,0.8,1,0.8c0.1,0,0.1-0.1,0.1-0.9l0-7.7c0-0.8,0-1,0.5-1.1c0.2,0,0.3,0,0.3,0c0.1,0,0.2-0.1,0.2-0.1
	c0-0.1-0.1-0.1-0.2-0.1c-0.6,0-1,0-1.2,0c-0.2,0-0.8,0-1.4,0c-0.2,0-0.3,0-0.3,0.1c0,0,0,0.1,0.1,0.1c0.1,0,0.4,0,0.7,0.1
	c0.4,0.1,0.5,0.4,0.5,1.2l0.1,6.6c-0.4-0.4-1.9-2-3.2-3.4c-2.1-2.2-4.1-4.2-4.3-4.5c-0.1-0.1-0.4-0.4-0.5-0.4
	c-0.1,0-0.2,0.1-0.2,0.7v7.5c0,1.2,0,1.5-0.4,1.6c-0.2,0.1-0.4,0.1-0.6,0.1c-0.1,0-0.1,0-0.1,0.1c0,0.1,0.1,0.1,0.2,0.1
	c0.6,0,1.2,0,1.3,0c0.1,0,0.7,0,1.4,0c0.2,0,0.2,0,0.2-0.1c0-0.1,0-0.1-0.1-0.1c-0.1,0-0.4,0-0.7-0.1c-0.4-0.1-0.5-0.4-0.5-1.5
	L168.9,49.9L168.9,49.9z M187,58c0.9,0,1.9-0.1,2.4-0.3c0.2-0.1,0.3-0.1,0.3-0.4c0.1-0.4,0.3-1.6,0.3-1.7c0-0.1-0.1-0.2-0.1-0.2
	c-0.1,0-0.1,0-0.1,0.2c0,0.2-0.2,0.8-0.5,1.1c-0.5,0.5-1.2,0.6-2.2,0.6c-2.9,0-4.9-2.2-4.9-4.7c0-1.3,0.2-2.5,1.2-3.4
	c0.5-0.4,1.3-0.9,3-0.9c1.2,0,2.2,0.3,2.7,0.7c0.4,0.3,0.6,0.8,0.6,1.3c0,0.2,0,0.3,0.1,0.3c0.1,0,0.1-0.1,0.2-0.3
	c0-0.2,0-0.9,0-1.3c0-0.5,0.1-0.6,0.1-0.7c0-0.1,0-0.1-0.2-0.1c-0.4,0-0.9-0.1-1.4-0.2c-0.7-0.1-1.4-0.2-2-0.2
	c-2.1,0-3.3,0.6-4.1,1.4c-1.2,1.2-1.5,2.7-1.5,3.6c0,1.2,0.3,2.7,1.6,3.9C183.6,57.5,184.9,58,187,58L187,58z M194.6,54
	c0,1.3,0,2.3-0.1,2.8c-0.1,0.4-0.1,0.6-0.4,0.7c-0.1,0-0.3,0.1-0.4,0.1c-0.1,0-0.1,0.1-0.1,0.1c0,0.1,0.1,0.1,0.2,0.1
	c0.2,0,0.5,0,0.8,0c0.3,0,0.6,0,0.6,0c0.2,0,0.6,0,1.1,0c0.6,0,1.3,0,2.4,0c0.5,0,0.7,0,0.8-0.3c0.1-0.3,0.2-1.2,0.2-1.3
	c0-0.1,0-0.2-0.1-0.2c-0.1,0-0.1,0-0.1,0.2c-0.1,0.5-0.3,0.8-0.6,0.9c-0.4,0.1-1,0.1-1.4,0.1c-1.3,0-1.6-0.2-1.6-1
	c0-0.3,0-1.8,0-2.2V53c0,0,0-0.1,0.1-0.1c0.2,0,1.7,0,2,0.1c0.5,0.1,0.6,0.2,0.7,0.4c0.1,0.2,0.1,0.3,0.1,0.4c0,0.1,0,0.1,0.1,0.1
	c0.1,0,0.1-0.1,0.1-0.2c0-0.1,0-0.6,0.1-0.8c0-0.4,0.1-0.6,0.1-0.7c0-0.1,0-0.1-0.1-0.1c0,0-0.1,0.1-0.2,0.2
	c-0.1,0.1-0.3,0.2-0.7,0.2c-0.3,0-2.1,0-2.3,0c-0.1,0-0.1,0-0.1-0.1v-3.6c0-0.1,0-0.1,0.1-0.1c0.2,0,1.7,0,2,0
	c0.7,0.1,0.9,0.2,1,0.4c0.1,0.2,0.1,0.4,0.1,0.5c0,0.1,0,0.2,0.1,0.2c0.1,0,0.1-0.1,0.1-0.1c0-0.2,0.1-0.7,0.1-0.9
	c0-0.4,0.1-0.5,0.1-0.6c0-0.1,0-0.1-0.1-0.1c-0.1,0-0.1,0-0.2,0.1c-0.1,0-0.4,0.1-0.6,0.1c-0.3,0-3.1,0-3.2,0c-0.1,0-1,0-1.6,0
	c-0.2,0-0.2,0-0.2,0.1c0,0,0.1,0.1,0.1,0.1c0.1,0,0.4,0,0.5,0c0.4,0.1,0.5,0.3,0.6,0.7c0,0.4,0,0.8,0,2.8V54L194.6,54z M220,48.1
	c0-0.2-0.1-0.4-0.2-0.4c-0.1,0-0.2,0.1-0.2,0.2l-3.9,8.1l-4.1-8.1c-0.1-0.2-0.2-0.2-0.3-0.2c-0.1,0-0.1,0.1-0.2,0.2l-1,8.5
	c-0.1,0.5-0.1,1-0.5,1c-0.2,0-0.3,0-0.4,0c-0.1,0-0.1,0-0.1,0.1c0,0.1,0.1,0.1,0.2,0.1c0.4,0,1,0,1.1,0c0.1,0,0.8,0,1.3,0
	c0.2,0,0.2,0,0.2-0.1c0,0-0.1-0.1-0.1-0.1c-0.1,0-0.3,0-0.5-0.1c-0.2,0-0.3-0.2-0.3-0.4c0-0.2,0-0.5,0-0.7l0.5-5.9h0.1
	c0.2,0.5,1.3,2.7,1.7,3.6c0.3,0.7,1.2,2.4,1.6,3c0.3,0.5,0.3,0.6,0.5,0.6c0.1,0,0.2-0.1,0.5-0.7l3.3-6.7h0l0.6,6.6
	c0,0.2,0,0.4-0.1,0.5c-0.1,0-0.1,0.1-0.1,0.1c0,0.1,0.1,0.1,0.4,0.1c0.5,0,2,0.1,2.3,0.1c0.2,0,0.3,0,0.3-0.1c0-0.1,0-0.1-0.1-0.1
	c-0.1,0-0.5,0-0.9-0.1c-0.6-0.2-0.6-0.9-0.7-1.4L220,48.1L220,48.1z M225.5,56.4c-0.3,0.7-0.5,1.1-1.1,1.2c-0.1,0-0.3,0-0.4,0
	c-0.1,0-0.1,0-0.1,0.1c0,0.1,0.1,0.1,0.3,0.1c0.6,0,1.2,0,1.4,0c0.2,0,0.9,0,1.2,0c0.1,0,0.2,0,0.2-0.1c0-0.1,0-0.1-0.1-0.1h-0.1
	c-0.2,0-0.5-0.1-0.5-0.4c0-0.2,0.1-0.6,0.2-0.9l0.8-2.1c0-0.1,0.1-0.1,0.1-0.1h3.1c0.1,0,0.1,0,0.1,0.1l1.2,3c0.1,0.2,0,0.3-0.1,0.4
	c-0.1,0-0.1,0-0.1,0.1c0,0.1,0.2,0.1,0.5,0.1c0.9,0,1.9,0,2.1,0c0.2,0,0.3,0,0.3-0.1c0-0.1-0.1-0.1-0.2-0.1c-0.1,0-0.3,0-0.5-0.1
	c-0.3-0.1-0.7-0.3-1.2-1.4c-0.8-2-3-7.4-3.2-7.9c-0.1-0.3-0.2-0.5-0.3-0.5c-0.1,0-0.2,0.1-0.3,0.5L225.5,56.4L225.5,56.4z
	 M227.4,53.7C227.4,53.7,227.4,53.6,227.4,53.7l1.2-3.7c0.1-0.2,0.2-0.2,0.2,0l1.3,3.6c0,0.1,0,0.1,0,0.1H227.4L227.4,53.7z
	 M237.9,49.9c0.4,0.5,1.9,2.1,3.5,3.7c1.4,1.5,3.4,3.4,3.5,3.5c0.8,0.7,0.9,0.8,1,0.8c0.1,0,0.1-0.1,0.1-0.9l0-7.7
	c0-0.8,0-1,0.5-1.1c0.2,0,0.3,0,0.3,0c0.1,0,0.2-0.1,0.2-0.1c0-0.1-0.1-0.1-0.2-0.1c-0.6,0-1,0-1.2,0c-0.2,0-0.8,0-1.4,0
	c-0.2,0-0.3,0-0.3,0.1c0,0,0,0.1,0.1,0.1c0.1,0,0.4,0,0.7,0.1c0.4,0.1,0.5,0.4,0.5,1.2l0.1,6.6c-0.4-0.4-1.9-2-3.2-3.4
	c-2.1-2.2-4.1-4.2-4.3-4.5c-0.1-0.1-0.4-0.4-0.5-0.4c-0.1,0-0.2,0.1-0.2,0.7v7.5c0,1.2,0,1.5-0.4,1.6c-0.2,0.1-0.4,0.1-0.6,0.1
	c-0.1,0-0.1,0-0.1,0.1c0,0.1,0.1,0.1,0.2,0.1c0.6,0,1.2,0,1.3,0c0.1,0,0.7,0,1.4,0c0.2,0,0.2,0,0.2-0.1c0-0.1,0-0.1-0.1-0.1
	c-0.1,0-0.4,0-0.7-0.1c-0.4-0.1-0.5-0.4-0.5-1.5L237.9,49.9L237.9,49.9z M250.5,56.4c-0.3,0.7-0.5,1.1-1.1,1.2c-0.1,0-0.3,0-0.4,0
	c-0.1,0-0.1,0-0.1,0.1c0,0.1,0.1,0.1,0.3,0.1c0.6,0,1.2,0,1.4,0c0.2,0,0.9,0,1.2,0c0.1,0,0.2,0,0.2-0.1c0-0.1,0-0.1-0.1-0.1h-0.1
	c-0.2,0-0.5-0.1-0.5-0.4c0-0.2,0.1-0.6,0.2-0.9l0.8-2.1c0-0.1,0.1-0.1,0.1-0.1h3.1c0.1,0,0.1,0,0.1,0.1l1.2,3c0.1,0.2,0,0.3-0.1,0.4
	c-0.1,0-0.1,0-0.1,0.1c0,0.1,0.2,0.1,0.5,0.1c0.9,0,1.9,0,2.1,0c0.2,0,0.3,0,0.3-0.1c0-0.1-0.1-0.1-0.2-0.1c-0.1,0-0.3,0-0.5-0.1
	c-0.3-0.1-0.7-0.3-1.2-1.4c-0.8-2-3-7.4-3.2-7.9c-0.1-0.3-0.2-0.5-0.3-0.5c-0.1,0-0.2,0.1-0.3,0.5L250.5,56.4L250.5,56.4z
	 M252.5,53.7C252.5,53.7,252.4,53.6,252.5,53.7l1.2-3.7c0.1-0.2,0.2-0.2,0.2,0l1.3,3.6c0,0.1,0,0.1,0,0.1H252.5L252.5,53.7z
	 M269,56.8c0,0.2-0.1,0.3-0.3,0.4c-0.4,0.2-1,0.2-1.5,0.2c-1.2,0-2.4-0.4-3.5-1.4c-0.5-0.4-1.4-1.8-1.4-3.6c0-1.5,0.6-2.7,1.3-3.3
	c1-0.8,2-0.8,2.8-0.8c1.8,0,2.8,0.5,3.1,1c0.2,0.3,0.3,0.7,0.3,0.9c0,0.1,0,0.2,0.1,0.2c0.1,0,0.2-0.1,0.2-0.3
	c0-1.3,0.1-1.7,0.1-1.8c0-0.1,0-0.1-0.2-0.1c-0.3,0-0.8-0.1-1.1-0.1c-0.3-0.1-1.2-0.2-2.1-0.2c-1,0-2.4,0.1-3.6,0.8
	c-1.2,0.7-2.3,2.2-2.3,4.3c0,1.6,0.8,3,1.6,3.7c1.5,1.3,3.4,1.4,4.5,1.4c0.8,0,2-0.1,2.9-0.6c0.2-0.1,0.2-0.1,0.2-0.7v-1.5
	c0-0.6,0-0.9,0-1.4c0-0.5,0.1-0.7,0.5-0.7c0.2,0,0.2,0,0.3,0c0,0,0.1-0.1,0.1-0.1c0-0.1-0.1-0.1-0.2-0.1c-0.4,0-1.3,0-1.3,0
	c-0.1,0-1,0-1.6,0c-0.2,0-0.2,0-0.2,0.1c0,0,0.1,0.1,0.1,0.1c0.1,0,0.4,0,0.5,0c0.6,0.1,0.6,0.3,0.6,1.3V56.8L269,56.8z M275.6,54
	c0,1.3,0,2.3-0.1,2.8c-0.1,0.4-0.1,0.6-0.4,0.7c-0.1,0-0.3,0.1-0.4,0.1c-0.1,0-0.1,0.1-0.1,0.1c0,0.1,0.1,0.1,0.2,0.1
	c0.2,0,0.5,0,0.8,0c0.3,0,0.6,0,0.6,0c0.2,0,0.6,0,1.1,0c0.6,0,1.3,0,2.4,0c0.5,0,0.7,0,0.8-0.3c0.1-0.3,0.2-1.2,0.2-1.3
	c0-0.1,0-0.2-0.1-0.2c-0.1,0-0.1,0-0.1,0.2c-0.1,0.5-0.3,0.8-0.6,0.9c-0.4,0.1-1,0.1-1.4,0.1c-1.3,0-1.6-0.2-1.6-1
	c0-0.3,0-1.8,0-2.2V53c0,0,0-0.1,0.1-0.1c0.2,0,1.7,0,2,0.1c0.5,0.1,0.6,0.2,0.7,0.4c0.1,0.2,0.1,0.3,0.1,0.4c0,0.1,0,0.1,0.1,0.1
	c0.1,0,0.1-0.1,0.1-0.2c0-0.1,0-0.6,0.1-0.8c0-0.4,0.1-0.6,0.1-0.7c0-0.1,0-0.1-0.1-0.1c0,0-0.1,0.1-0.2,0.2
	c-0.1,0.1-0.3,0.2-0.7,0.2c-0.3,0-2.1,0-2.3,0c-0.1,0-0.1,0-0.1-0.1v-3.6c0-0.1,0-0.1,0.1-0.1c0.2,0,1.7,0,2,0
	c0.7,0.1,0.9,0.2,1,0.4c0.1,0.2,0.1,0.4,0.1,0.5c0,0.1,0,0.2,0.1,0.2c0.1,0,0.1-0.1,0.1-0.1c0-0.2,0.1-0.7,0.1-0.9
	c0-0.4,0.1-0.5,0.1-0.6c0-0.1,0-0.1-0.1-0.1c-0.1,0-0.1,0-0.2,0.1c-0.1,0-0.4,0.1-0.6,0.1c-0.3,0-3.1,0-3.2,0c-0.1,0-1,0-1.6,0
	c-0.2,0-0.2,0-0.2,0.1c0,0,0.1,0.1,0.1,0.1c0.1,0,0.4,0,0.5,0c0.4,0.1,0.5,0.3,0.6,0.7c0,0.4,0,0.8,0,2.8V54L275.6,54z M285.4,54
	c0,1.3,0,2.3-0.1,2.8c-0.1,0.4-0.1,0.6-0.4,0.7c-0.1,0-0.3,0.1-0.4,0.1c-0.1,0-0.1,0.1-0.1,0.1c0,0.1,0.1,0.1,0.2,0.1
	c0.4,0,1.3,0,1.3,0c0.1,0,0.9,0,1.7,0c0.2,0,0.2,0,0.2-0.1c0,0,0-0.1-0.1-0.1c-0.1,0-0.4,0-0.6-0.1c-0.4-0.1-0.5-0.3-0.5-0.7
	c-0.1-0.5-0.1-1.6-0.1-2.8v-0.3c0-0.1,0-0.1,0.1-0.1l1.7,0c0.1,0,0.1,0,0.2,0.1c0.3,0.4,0.9,1.2,1.5,1.9c0.8,1,1.3,1.6,1.8,1.9
	c0.3,0.2,0.7,0.3,1.4,0.3h0.8c0.2,0,0.3,0,0.3-0.1c0,0,0-0.1-0.1-0.1c-0.1,0-0.2,0-0.5,0c-0.3,0-0.8-0.2-1.5-0.9
	c-0.8-0.8-1.7-2-2.8-3.4c1.3-1.1,1.7-2,1.7-3c0-0.9-0.6-1.5-0.9-1.8c-0.7-0.5-1.7-0.6-2.5-0.6c-0.4,0-1.6,0-1.7,0c-0.1,0-1,0-1.6,0
	c-0.2,0-0.2,0-0.2,0.1c0,0,0.1,0.1,0.1,0.1c0.1,0,0.4,0,0.5,0c0.4,0.1,0.5,0.3,0.6,0.7c0,0.4,0,0.8,0,2.8V54L285.4,54z M286.6,48.6
	c0-0.1,0-0.1,0.1-0.2c0.1,0,0.6-0.1,1-0.1c1.4,0,2.3,0.9,2.3,2.6c0,1-0.4,1.7-0.8,2c-0.3,0.2-0.7,0.2-1,0.2c-0.6,0-1.3-0.1-1.5-0.2
	c-0.1,0-0.1-0.1-0.1-0.2V48.6L286.6,48.6z M297.8,58c0.7,0,1.6-0.1,2.2-0.5c1-0.6,1.3-1.5,1.3-2.2c0-1.1-0.6-2-2.2-3.2l-0.4-0.3
	c-1.3-0.9-1.8-1.4-1.8-2.2c0-0.9,0.8-1.4,1.8-1.4c1.2,0,1.7,0.5,1.8,0.6c0.1,0.1,0.2,0.5,0.2,0.6c0,0.1,0,0.2,0.1,0.2
	c0.1,0,0.1-0.1,0.1-0.3c0-0.9,0.1-1.3,0.1-1.4c0-0.1,0-0.1-0.1-0.1c-0.1,0-0.2,0-0.5-0.1c-0.3-0.1-0.9-0.2-1.4-0.2
	c-1.8,0-3,0.9-3,2.5c0,0.9,0.5,1.7,1.9,2.8l0.6,0.5c1.2,0.9,1.7,1.3,1.7,2.3c0,1-0.7,1.7-2,1.7c-0.9,0-1.9-0.3-2.1-1.3
	c0-0.2,0-0.4,0-0.5c0-0.1,0-0.2-0.1-0.2c-0.1,0-0.1,0.1-0.1,0.2c0,0.2-0.1,0.7-0.1,1.4c0,0.4,0,0.4,0.2,0.5
	C296.4,57.9,297.1,58,297.8,58L297.8,58z"/>
<path fill="#819821" d="M103.1,80.4c0,1.9,0,2.1-1.1,2.2l-0.4,0.1c-0.1,0.1-0.1,0.4,0,0.4c0.9,0,1.5-0.1,2.2-0.1
	c0.7,0,1.3,0,2.2,0.1c0.1-0.1,0.1-0.4,0-0.4l-0.4-0.1c-1-0.1-1.1-0.4-1.1-2.2v-6.3c0-1.9,0-2.2,1.1-2.3l0.4,0c0.1-0.1,0.1-0.4,0-0.4
	c-0.9,0-1.5,0.1-2.2,0.1c-0.7,0-1.3,0-2.2-0.1c-0.1,0.1-0.1,0.4,0,0.4l0.4,0c1,0.1,1.1,0.4,1.1,2.3V80.4L103.1,80.4z M108.2,81.1
	c0,1.3,0,1.4-0.7,1.5l-0.4,0.1c-0.1,0.1-0.1,0.4,0,0.4c0.5,0,1-0.1,1.7-0.1c0.6,0,1.1,0,1.6,0.1c0.1-0.1,0.2-0.4,0-0.4l-0.3-0.1
	c-0.6-0.1-0.7-0.3-0.7-1.5v-2.7c0-0.5,0-0.8,0.3-1.1c0.2-0.3,0.8-0.6,1.5-0.6c1.2,0,1.7,0.7,1.7,1.7v2.6c0,1.3,0,1.4-0.7,1.5
	l-0.3,0.1c-0.1,0.1-0.1,0.4,0,0.4c0.5,0,1-0.1,1.6-0.1c0.6,0,1.1,0,1.7,0.1c0.1-0.1,0.2-0.4,0-0.4l-0.4-0.1
	c-0.6-0.1-0.7-0.3-0.7-1.5v-3c0-1.2-0.6-2.2-2.1-2.2c-0.9,0-1.7,0.4-2.5,0.9c-0.1,0-0.2-0.1-0.2-0.2c0-0.2,0-0.4,0-0.8
	c0-0.1-0.1-0.1-0.2-0.1c-0.4,0.3-1.4,0.7-1.8,0.9c-0.1,0.1-0.1,0.2,0,0.3l0.2,0.1c0.5,0.3,0.5,0.4,0.5,1.1V81.1L108.2,81.1z
	 M117.4,81.1c0,1.3,0,1.4-0.7,1.5l-0.4,0.1c-0.1,0.1-0.1,0.4,0,0.4c0.5,0,1-0.1,1.7-0.1c0.6,0,1.1,0,1.6,0.1c0.1-0.1,0.2-0.4,0-0.4
	l-0.3-0.1c-0.6-0.1-0.7-0.3-0.7-1.5v-2.7c0-0.5,0-0.8,0.3-1.1c0.2-0.3,0.8-0.6,1.5-0.6c1.2,0,1.7,0.7,1.7,1.7v2.6
	c0,1.3,0,1.4-0.7,1.5l-0.3,0.1c-0.1,0.1-0.1,0.4,0,0.4c0.5,0,1-0.1,1.6-0.1c0.6,0,1.1,0,1.7,0.1c0.1-0.1,0.2-0.4,0-0.4l-0.4-0.1
	c-0.6-0.1-0.7-0.3-0.7-1.5v-3c0-1.2-0.6-2.2-2.1-2.2c-0.9,0-1.7,0.4-2.5,0.9c-0.1,0-0.2-0.1-0.2-0.2c0-0.2,0-0.4,0-0.8
	c0-0.1-0.1-0.1-0.2-0.1c-0.4,0.3-1.4,0.7-1.8,0.9c-0.1,0.1-0.1,0.2,0,0.3l0.2,0.1c0.5,0.3,0.5,0.4,0.5,1.1V81.1L117.4,81.1z
	 M129.1,75.9c-2.1,0-3.7,1.6-3.7,3.8c0,2.2,1.6,3.6,3.6,3.6c2.2,0,3.7-1.6,3.7-3.8C132.7,77.3,131.1,75.9,129.1,75.9L129.1,75.9z
	 M131.2,79.8c0,1.4-0.5,3-2,3c-1.5,0-2.3-1.7-2.3-3.3c0-1.9,0.9-3,2-3C130.6,76.4,131.2,78.3,131.2,79.8L131.2,79.8z M135.9,81.4
	c0.3,0.6,0.5,1.3,0.7,1.8c0.1,0.1,0.1,0.1,0.2,0.1c0.1,0,0.1,0,0.2-0.1c0.2-0.6,0.4-1,0.6-1.4c0.3-0.7,1.4-3.3,1.6-3.7
	c0.5-1,0.7-1.4,1.3-1.5l0.3,0c0.1-0.1,0.1-0.4,0-0.4c-0.5,0-0.8,0.1-1.2,0.1c-0.3,0-0.8,0-1.3-0.1c-0.1,0.1-0.1,0.3,0,0.4l0.4,0.1
	c0.2,0,0.3,0.1,0.3,0.3c0,0.1-0.1,0.5-0.3,1.1c-0.2,0.5-0.8,2-1,2.6c-0.1,0.4-0.3,0.6-0.3,0.7c-0.1-0.1-0.1-0.2-0.3-0.6
	c-0.4-0.9-0.9-2.1-1.3-3.4c-0.2-0.5-0.2-0.6,0.4-0.7l0.2,0c0.1-0.1,0.1-0.4,0-0.4c-0.6,0-1,0.1-1.4,0.1c-0.6,0-1.2,0-1.7-0.1
	c-0.1,0.1-0.2,0.3-0.1,0.4l0.4,0.1c0.6,0.1,0.8,0.7,1.1,1.3L135.9,81.4L135.9,81.4z M142.4,80.1c-1.1,0.4-1.5,0.8-1.5,1.5
	c0,0.5,0.2,0.9,0.5,1.2c0.3,0.3,0.7,0.4,1.2,0.4c0.5,0,0.9-0.2,1.3-0.4c0.4-0.2,0.6-0.4,0.7-0.4c0.1,0,0.2,0.1,0.3,0.2
	c0.3,0.4,0.7,0.5,1.1,0.5c0.9,0,1.5-0.7,1.5-0.8c0-0.1-0.1-0.2-0.1-0.2c-0.1,0-0.1,0.1-0.2,0.1c-0.1,0.1-0.3,0.1-0.4,0.1
	c-0.7,0-0.8-0.7-0.8-1.5l0.1-3.1c0.1-1.3-0.6-2.1-1.8-2.1c-1.3,0-3.3,1.2-3.3,2.2c0,0.2,0.1,0.2,0.2,0.2c0.3,0,0.7-0.1,1-0.3
	c0.1-0.1,0.2-0.3,0.2-0.6c0-0.5,0.6-0.8,1.1-0.8c1.1,0,1.3,0.9,1.3,1.5l0,0.8c0,0.3,0,0.4-0.3,0.5L142.4,80.1L142.4,80.1z
	 M142.3,81.4c0-0.7,0.5-0.9,1.5-1.3c0.3-0.1,0.6-0.2,0.7-0.2c0.1,0,0.2,0,0.2,0.2l0,1c0,0.4,0,0.6-0.2,0.8c-0.2,0.2-0.7,0.4-1.1,0.4
	C142.5,82.5,142.3,81.7,142.3,81.4L142.3,81.4z M152.5,76.8c0.2-0.1,0.2-0.6,0-0.7h-2c-0.3,0-0.3,0-0.3-0.3V75
	c-0.1-0.1-0.3-0.1-0.4-0.1c-0.2,0.4-0.5,0.8-0.7,1c-0.2,0.2-0.6,0.4-1.1,0.5c-0.1,0.1-0.1,0.3,0.1,0.4h0.5c0.4,0,0.4,0,0.4,0.5v4
	c0,1.1,0.3,1.9,1.8,1.9c0.9,0,1.5-0.4,1.8-0.8c0-0.1,0-0.3-0.2-0.3c-0.1,0-0.3,0.2-0.4,0.2c-0.1,0.1-0.3,0.1-0.5,0.1
	c-1.2,0-1.3-0.9-1.3-2v-3.3c0-0.4,0-0.4,0.3-0.4H152.5L152.5,76.8z M154.4,81.1c0,1.3,0,1.4-0.7,1.5l-0.4,0.1
	c-0.1,0.1-0.1,0.4,0,0.4c0.5,0,1-0.1,1.7-0.1c0.6,0,1.1,0,1.7,0.1c0.1-0.1,0.2-0.4,0-0.4l-0.4-0.1c-0.6-0.1-0.7-0.3-0.7-1.5v-3.2
	c0-0.7,0-1.6,0.1-2.2c0-0.1-0.1-0.1-0.2-0.1c-0.4,0.3-1.4,0.7-1.8,0.9c-0.1,0.1-0.1,0.2,0,0.3l0.2,0.1c0.5,0.3,0.5,0.4,0.5,1.1V81.1
	L154.4,81.1z M155,72.1c-0.5,0-1,0.4-1,0.9c0,0.5,0.4,0.9,0.9,0.9c0.5,0,0.9-0.3,0.9-0.9C155.9,72.5,155.5,72.1,155,72.1L155,72.1z
	 M160,81.4c0.3,0.6,0.5,1.3,0.7,1.8c0.1,0.1,0.1,0.1,0.2,0.1c0.1,0,0.1,0,0.2-0.1c0.2-0.6,0.4-1,0.6-1.4c0.3-0.7,1.4-3.3,1.6-3.7
	c0.5-1,0.7-1.4,1.3-1.5l0.3,0c0.1-0.1,0.1-0.4,0-0.4c-0.5,0-0.8,0.1-1.2,0.1c-0.3,0-0.8,0-1.3-0.1c-0.1,0.1-0.1,0.3,0,0.4l0.4,0.1
	c0.2,0,0.3,0.1,0.3,0.3c0,0.1-0.1,0.5-0.3,1.1c-0.2,0.5-0.8,2-1,2.6c-0.1,0.4-0.3,0.6-0.3,0.7c-0.1-0.1-0.1-0.2-0.3-0.6
	c-0.4-0.9-0.9-2.1-1.3-3.4c-0.2-0.5-0.2-0.6,0.4-0.7l0.2,0c0.1-0.1,0.1-0.4,0-0.4c-0.6,0-0.9,0.1-1.4,0.1c-0.6,0-1.2,0-1.7-0.1
	c-0.1,0.1-0.2,0.3-0.1,0.4l0.4,0.1c0.6,0.1,0.8,0.7,1.1,1.3L160,81.4L160,81.4z M170.1,78.5c0.7,0,1,0,1-0.1c0-0.1,0.1-0.2,0.1-0.5
	c0-1.1-1-2.1-2.5-2.1c-2.1,0-3.5,1.8-3.5,4c0,0.8,0.2,1.6,0.7,2.3c0.5,0.7,1.4,1.2,2.6,1.2c0.9,0,2.2-0.4,2.8-1.6
	c0-0.2-0.1-0.3-0.3-0.2c-0.5,0.7-1,0.9-1.6,0.9c-1.9,0-2.9-1.5-2.9-3.3c0-0.4,0-0.5,0.5-0.5H170.1L170.1,78.5z M166.7,78
	c-0.1,0-0.1-0.1-0.1-0.1c0-0.6,0.9-1.5,2-1.5c1,0,1.4,0.6,1.4,1.1c0,0.2-0.1,0.3-0.1,0.3c-0.1,0.1-0.5,0.2-1.8,0.2H166.7L166.7,78z
	 M180.4,72.5c0-0.6,0-0.6,1-0.6c1.8,0,2.8,1.1,2.8,2.8c0,1.5-0.7,2.6-2.6,3c-0.1,0-0.1,0.3,0,0.4c0.7,0,1.7-0.2,2.4-0.5
	c0.8-0.4,1.8-1.2,1.8-2.8c0-1.2-0.6-2.1-1.4-2.6c-0.8-0.5-1.9-0.7-3.4-0.7c-1.5,0-2.5,0-3.5,0.1c-0.1,0.1-0.2,0.3,0,0.4l0.6,0.1
	c0.8,0.1,0.8,0.4,0.8,1.9v6.5c0,1.8,0,2.1-1.1,2.2l-0.4,0.1c-0.1,0.1-0.1,0.4,0,0.4c0.8,0,1.4-0.1,2.1-0.1c0.7,0,1.3,0,2.3,0.1
	c0.1-0.1,0.1-0.4,0-0.4l-0.5-0.1c-1.1-0.1-1.2-0.4-1.2-2.2V72.5L180.4,72.5z M187.5,81.1c0,1.3,0,1.4-0.7,1.5l-0.3,0.1
	c-0.1,0.1-0.1,0.4,0,0.4c0.5,0,1-0.1,1.6-0.1c0.6,0,1.1,0,2,0.1c0.1-0.1,0.2-0.4,0-0.4l-0.6-0.1c-0.7-0.1-0.7-0.3-0.7-1.5v-2.4
	c0-0.6,0.1-1.1,0.2-1.4c0.1-0.2,0.4-0.4,0.6-0.4c0.2,0,0.5,0.1,0.8,0.3c0.1,0.1,0.2,0.1,0.4,0.1c0.3,0,0.8-0.2,0.8-0.8
	c0-0.4-0.4-0.7-0.8-0.7c-0.7,0-1.3,0.5-1.9,1.1c0,0-0.1-0.1-0.1-0.2v-1c0-0.1-0.1-0.1-0.1-0.1c-0.4,0.3-1.4,0.7-1.8,0.9
	c-0.1,0.1-0.1,0.2,0,0.3l0.2,0.1c0.5,0.3,0.5,0.4,0.5,1.1V81.1L187.5,81.1z M195.8,75.9c-2.1,0-3.7,1.6-3.7,3.8
	c0,2.2,1.6,3.6,3.6,3.6c2.2,0,3.7-1.6,3.7-3.8C199.3,77.3,197.7,75.9,195.8,75.9L195.8,75.9z M197.8,79.8c0,1.4-0.5,3-2,3
	c-1.5,0-2.3-1.7-2.3-3.3c0-1.9,0.9-3,2-3C197.2,76.4,197.8,78.3,197.8,79.8L197.8,79.8z M201.4,85.5c0,1.3,0,1.4-0.7,1.5l-0.4,0.1
	c-0.1,0.1-0.1,0.4,0,0.4c0.5,0,1-0.1,1.7-0.1c0.6,0,1.1,0,2,0.1c0.1-0.1,0.2-0.4,0-0.4l-0.7-0.1c-0.6-0.1-0.7-0.2-0.7-1.5v-1.8
	c0-0.4,0.1-0.5,0.2-0.5c0.2,0,0.7,0.1,1,0.1c2.5,0,4.3-1.8,4.3-4.2c0-1.8-1.1-3.2-2.9-3.2c-1.1,0-2.2,0.7-2.5,0.8
	c-0.1,0-0.2-0.1-0.2-0.2c0-0.2,0-0.5,0.1-0.8c0-0.1-0.1-0.1-0.2-0.1c-0.5,0.3-1.3,0.8-1.7,1c-0.1,0.1-0.1,0.2,0,0.3l0.2,0.1
	c0.5,0.3,0.5,0.4,0.5,1.1V85.5L201.4,85.5z M202.7,78.2c0-0.6,0.1-0.8,0.2-1c0.2-0.2,0.7-0.5,1.5-0.5c1.6,0,2.4,1.4,2.4,2.8
	c0,1.8-0.8,3.2-2.3,3.2c-0.4,0-0.9-0.1-1.3-0.4c-0.4-0.3-0.5-0.5-0.5-1.1V78.2L202.7,78.2z M214.2,78.5c0.7,0,1,0,1-0.1
	c0-0.1,0.1-0.2,0.1-0.5c0-1.1-1-2.1-2.5-2.1c-2.1,0-3.5,1.8-3.5,4c0,0.8,0.2,1.6,0.7,2.3c0.5,0.7,1.4,1.2,2.5,1.2
	c0.9,0,2.2-0.4,2.8-1.6c0-0.2-0.1-0.3-0.3-0.2c-0.5,0.7-1,0.9-1.6,0.9c-1.9,0-2.9-1.5-2.9-3.3c0-0.4,0-0.5,0.5-0.5H214.2L214.2,78.5
	z M210.8,78c-0.1,0-0.1-0.1-0.1-0.1c0-0.6,0.9-1.5,2-1.5c1,0,1.4,0.6,1.4,1.1c0,0.2-0.1,0.3-0.1,0.3c-0.1,0.1-0.5,0.2-1.8,0.2H210.8
	L210.8,78z M217.3,81.1c0,1.3,0,1.4-0.7,1.5l-0.3,0.1c-0.1,0.1-0.1,0.4,0,0.4c0.5,0,1-0.1,1.6-0.1c0.6,0,1.1,0,2,0.1
	c0.1-0.1,0.2-0.4,0-0.4l-0.6-0.1c-0.7-0.1-0.7-0.3-0.7-1.5v-2.4c0-0.6,0.1-1.1,0.2-1.4c0.1-0.2,0.4-0.4,0.6-0.4
	c0.2,0,0.5,0.1,0.8,0.3c0.1,0.1,0.2,0.1,0.4,0.1c0.3,0,0.8-0.2,0.8-0.8c0-0.4-0.4-0.7-0.8-0.7c-0.7,0-1.3,0.5-1.9,1.1
	c0,0-0.1-0.1-0.1-0.2v-1c0-0.1-0.1-0.1-0.1-0.1c-0.4,0.3-1.4,0.7-1.8,0.9c-0.1,0.1-0.1,0.2,0,0.3l0.2,0.1c0.5,0.3,0.5,0.4,0.5,1.1
	V81.1L217.3,81.1z M226.6,76.8c0.2-0.1,0.2-0.6,0-0.7h-2c-0.3,0-0.3,0-0.3-0.3V75c-0.1-0.1-0.3-0.1-0.4-0.1c-0.2,0.4-0.5,0.8-0.7,1
	c-0.2,0.2-0.6,0.4-1.1,0.5c-0.1,0.1-0.1,0.3,0.1,0.4h0.5c0.4,0,0.4,0,0.4,0.5v4c0,1.1,0.3,1.9,1.8,1.9c0.9,0,1.5-0.4,1.8-0.8
	c0-0.1,0-0.3-0.2-0.3c-0.1,0-0.3,0.2-0.4,0.2c-0.1,0.1-0.3,0.1-0.5,0.1c-1.2,0-1.3-0.9-1.3-2v-3.3c0-0.4,0-0.4,0.3-0.4H226.6
	L226.6,76.8z M228,87.4c0.4,0,0.8-0.2,1.1-0.8c0.9-1.9,2.3-5,2.9-6.2l1-2c0.6-1.2,0.9-1.8,1.5-1.9l0.3-0.1c0.1-0.1,0.1-0.4,0-0.4
	c-0.5,0-0.9,0.1-1.3,0.1c-0.5,0-1,0-1.5-0.1c-0.1,0.1-0.2,0.4,0,0.4l0.5,0.1c0.3,0.1,0.4,0.2,0.4,0.3c0,0.2-0.2,0.8-0.6,1.8
	l-0.6,1.4c-0.3,0.7-0.6,1.3-0.7,1.3c-0.1,0-0.4-1-0.5-1.2l-0.6-1.6c-0.1-0.3-0.5-1.4-0.5-1.7c0-0.1,0.1-0.2,0.4-0.2l0.4-0.1
	c0.1-0.1,0.1-0.4,0-0.4c-0.6,0-1.1,0.1-1.5,0.1c-0.6,0-1.1,0-1.7-0.1c-0.1,0.1-0.2,0.4-0.1,0.4l0.4,0.1c0.6,0.1,0.7,0.5,1,1.4
	l1.4,3.8c0.2,0.6,0.3,0.9,0.3,1.2c0,0.2-0.1,0.6-0.2,0.8c-0.2,0.4-0.5,1.2-1,2c-0.1,0.2-0.3,0.3-0.6,0.3h-0.3
	c-0.4,0-0.7,0.2-0.7,0.7C227.2,87.1,227.5,87.4,228,87.4L228,87.4z M246.4,80.1c0-1.7-1.1-2.7-2.2-3.4l-1.4-0.9
	c-0.7-0.4-1.5-1.1-1.5-2.2c0-0.8,0.4-2,2.1-2c1.7,0,2.2,1.1,2.4,2c0.1,0.1,0.4,0.1,0.4-0.1c0-0.7-0.2-1.7-0.3-2.1
	c-0.1,0-0.4,0-0.6-0.1c-0.5-0.1-1.1-0.2-1.6-0.2c-2.3,0-3.6,1.4-3.6,3c0,1.4,1,2.4,1.9,3l1.7,1.1c1.3,0.8,1.4,1.7,1.4,2.5
	c0,1.1-0.7,2-2.2,2c-2,0-2.8-1.7-3-2.6c-0.1-0.1-0.3-0.1-0.4,0.1c0,0.8,0.3,2.1,0.5,2.5c0.3,0.2,1.3,0.7,2.7,0.7
	C244.9,83.3,246.4,82,246.4,80.1L246.4,80.1z M251.4,75.9c-2.1,0-3.7,1.6-3.7,3.8c0,2.2,1.6,3.6,3.6,3.6c2.2,0,3.7-1.6,3.7-3.8
	C254.9,77.3,253.3,75.9,251.4,75.9L251.4,75.9z M253.4,79.8c0,1.4-0.5,3-2,3c-1.5,0-2.3-1.7-2.3-3.3c0-1.9,0.9-3,2-3
	C252.8,76.4,253.4,78.3,253.4,79.8L253.4,79.8z M258.3,72.7c0-0.8,0-1.7,0.1-2.2c0-0.1-0.1-0.1-0.2-0.1c-0.6,0.3-1.5,0.6-1.9,0.7
	c-0.1,0.1-0.1,0.3,0,0.4l0.2,0.1c0.5,0.3,0.5,0.4,0.5,1.5v8c0,1.3,0,1.4-0.7,1.5l-0.4,0.1c-0.1,0.1-0.1,0.4,0,0.4
	c0.5,0,1.1-0.1,1.7-0.1c0.6,0,1.1,0,1.7,0.1c0.1-0.1,0.2-0.4,0-0.4l-0.4-0.1c-0.6-0.1-0.7-0.3-0.7-1.5V72.7L258.3,72.7z M262.5,77.5
	c0-0.9,0-1.2,0.1-1.5c0-0.1-0.1-0.1-0.2-0.1c-0.4,0.1-1.1,0.3-1.9,0.3c-0.1,0.1-0.1,0.3,0,0.4l0.2,0.1c0.5,0.2,0.5,0.4,0.5,1.5v2.9
	c0,1.4,0.6,2.2,2.1,2.2c1,0,1.9-0.6,2.4-0.9c0.1,0,0.2,0.1,0.2,0.2v0.7c0,0.1,0.1,0.1,0.2,0.1c0.6-0.3,1.6-0.5,2.3-0.7
	c0.1-0.1,0.1-0.4,0-0.5c-0.2,0.1-0.5,0.1-0.7,0.1c-0.5,0-0.5-0.5-0.5-1.9v-3c0-0.6,0-1.2,0.1-1.5c0-0.1-0.1-0.1-0.2-0.1
	c-0.4,0.2-1.4,0.3-2.1,0.3c-0.1,0.1-0.1,0.3,0,0.4l0.2,0.1c0.5,0.2,0.7,0.2,0.7,1.4v2.9c0,0.5-0.1,0.8-0.4,1c-0.4,0.3-1,0.5-1.4,0.5
	c-1.3,0-1.6-0.8-1.6-2V77.5L262.5,77.5z M273.8,76.8c0.2-0.1,0.2-0.6,0-0.7h-2c-0.3,0-0.3,0-0.3-0.3V75c-0.1-0.1-0.3-0.1-0.4-0.1
	c-0.2,0.4-0.5,0.8-0.7,1c-0.2,0.2-0.6,0.4-1.1,0.5c-0.1,0.1-0.1,0.3,0.1,0.4h0.5c0.4,0,0.4,0,0.4,0.5v4c0,1.1,0.3,1.9,1.8,1.9
	c0.9,0,1.5-0.4,1.8-0.8c0-0.1,0-0.3-0.2-0.3c-0.1,0-0.3,0.2-0.4,0.2c-0.1,0.1-0.3,0.1-0.5,0.1c-1.2,0-1.3-0.9-1.3-2v-3.3
	c0-0.4,0-0.4,0.3-0.4H273.8L273.8,76.8z M275.7,81.1c0,1.3,0,1.4-0.7,1.5l-0.4,0.1c-0.1,0.1-0.1,0.4,0,0.4c0.5,0,1-0.1,1.7-0.1
	c0.6,0,1.1,0,1.7,0.1c0.1-0.1,0.2-0.4,0-0.4l-0.4-0.1c-0.6-0.1-0.7-0.3-0.7-1.5v-3.2c0-0.7,0-1.6,0.1-2.2c0-0.1-0.1-0.1-0.2-0.1
	c-0.4,0.3-1.4,0.7-1.8,0.9c-0.1,0.1-0.1,0.2,0,0.3l0.2,0.1c0.5,0.3,0.5,0.4,0.5,1.1V81.1L275.7,81.1z M276.2,72.1
	c-0.5,0-1,0.4-1,0.9c0,0.5,0.4,0.9,0.9,0.9c0.5,0,0.9-0.3,0.9-0.9C277.1,72.5,276.8,72.1,276.2,72.1L276.2,72.1z M282.7,75.9
	c-2.1,0-3.7,1.6-3.7,3.8c0,2.2,1.6,3.6,3.6,3.6c2.2,0,3.7-1.6,3.7-3.8C286.3,77.3,284.7,75.9,282.7,75.9L282.7,75.9z M284.8,79.8
	c0,1.4-0.5,3-2,3c-1.5,0-2.3-1.7-2.3-3.3c0-1.9,0.9-3,2-3C284.2,76.4,284.8,78.3,284.8,79.8L284.8,79.8z M288.6,81.1
	c0,1.3,0,1.4-0.7,1.5l-0.4,0.1c-0.1,0.1-0.1,0.4,0,0.4c0.5,0,1-0.1,1.7-0.1c0.6,0,1.1,0,1.6,0.1c0.1-0.1,0.2-0.4,0-0.4l-0.3-0.1
	c-0.6-0.1-0.7-0.3-0.7-1.5v-2.7c0-0.5,0-0.8,0.3-1.1c0.2-0.3,0.8-0.6,1.5-0.6c1.2,0,1.7,0.7,1.7,1.7v2.6c0,1.3,0,1.4-0.7,1.5
	l-0.3,0.1c-0.1,0.1-0.1,0.4,0,0.4c0.5,0,1-0.1,1.6-0.1c0.6,0,1.1,0,1.7,0.1c0.1-0.1,0.2-0.4,0-0.4l-0.4-0.1
	c-0.6-0.1-0.7-0.3-0.7-1.5v-3c0-1.2-0.6-2.2-2.1-2.2c-0.9,0-1.7,0.4-2.5,0.9c-0.1,0-0.2-0.1-0.2-0.2c0-0.2,0-0.4,0-0.8
	c0-0.1-0.1-0.1-0.2-0.1c-0.4,0.3-1.4,0.7-1.8,0.9c-0.1,0.1-0.1,0.2,0,0.3l0.2,0.1c0.5,0.3,0.5,0.4,0.5,1.1V81.1L288.6,81.1z
	 M299.2,75.9c-1.3,0-2.4,0.7-2.4,2c0,1,0.7,1.6,1.7,2.2c0.7,0.4,1.4,0.8,1.4,1.6c0,0.8-0.5,1.1-1.2,1.1c-1,0-1.6-0.8-1.9-1.8
	c-0.1-0.1-0.3-0.1-0.4,0c0,0.6,0.1,1.4,0.2,1.8c0.4,0.4,1.1,0.5,1.9,0.5c1.3,0,2.5-0.7,2.5-2c0-1.2-0.9-1.8-1.8-2.4
	c-0.6-0.4-1.4-0.7-1.4-1.5c0-0.6,0.4-1.1,1.1-1.1c0.7,0,1.2,0.5,1.5,1.3c0.1,0.1,0.4,0.1,0.4-0.1c0-0.5-0.1-1-0.3-1.4
	C300.6,76,300,75.9,299.2,75.9L299.2,75.9z"/>
<line fill="none" stroke="#67686B" stroke-width="0.5" x1="101.5" y1="66.6" x2="301.7" y2="66.6"/>
<path fill="#67686B" d="M305.9,20.3c0,0.8,0,1.5,0,1.8c0,0.2-0.1,0.4-0.2,0.5c-0.1,0-0.2,0-0.3,0c-0.1,0-0.1,0-0.1,0.1
	c0,0.1,0.1,0.1,0.2,0.1c0.3,0,0.9,0,1.1,0c0.2,0,0.8,0,1.3,0c0.1,0,0.2,0,0.2-0.1c0,0,0-0.1-0.1-0.1c-0.1,0-0.3,0-0.4,0
	c-0.3,0-0.3-0.2-0.3-0.5c0-0.4,0-1,0-1.8v-3.5l1.1,0c0.8,0,1,0.3,1,0.5l0,0.1c0,0.1,0,0.2,0.1,0.2c0.1,0,0.1-0.1,0.1-0.1
	c0-0.2,0-0.8,0-1c0-0.1,0-0.2-0.1-0.2c0,0-0.1,0-0.2,0c-0.1,0-0.3,0-0.6,0H305c-0.3,0-0.6,0-0.9,0c-0.2,0-0.3-0.1-0.4-0.1
	c-0.1,0-0.1,0.1-0.1,0.2c0,0.1-0.2,0.8-0.2,1c0,0.1,0,0.1,0.1,0.1c0.1,0,0.1,0,0.1-0.1c0-0.1,0.1-0.2,0.1-0.3
	c0.1-0.2,0.3-0.2,0.8-0.2l1.3,0V20.3L305.9,20.3z M309.9,22c0,0.3-0.1,0.6-0.4,0.7c-0.1,0-0.2,0-0.3,0c-0.1,0-0.1,0-0.1,0.1
	c0,0.1,0.1,0.1,0.2,0.1c0.3,0,0.7,0,0.8,0c0.2,0,0.5,0,0.9,0c0.1,0,0.2,0,0.2-0.1c0,0-0.1-0.1-0.1-0.1c-0.1,0-0.2,0-0.4,0
	c-0.1,0-0.3-0.1-0.3-0.3c0-0.1,0-0.2,0-0.4l0.4-3.4h0c0.3,0.6,0.8,1.7,0.9,1.9c0.1,0.2,0.8,1.5,1,1.9c0.1,0.3,0.2,0.4,0.3,0.4
	c0.1,0,0.1-0.1,0.3-0.5l1.9-3.9h0l0.5,3.8c0,0.2,0,0.4,0,0.4c-0.1,0-0.1,0.1-0.1,0.1c0,0.1,0.1,0.1,0.2,0.1c0.3,0,1.5,0.1,1.7,0.1
	c0.1,0,0.2,0,0.2-0.1c0-0.1-0.1-0.1-0.1-0.1c-0.1,0-0.3,0-0.5-0.1c-0.3-0.1-0.3-0.3-0.4-0.9l-0.8-5.3c0-0.2-0.1-0.3-0.2-0.3
	c-0.1,0-0.1,0.1-0.2,0.2l-2.3,4.9l-2.3-4.8c-0.1-0.2-0.2-0.3-0.2-0.3c-0.1,0-0.1,0.1-0.1,0.2L309.9,22L309.9,22z"/>
</svg>
